<svg height="448pt" viewBox="0 0 448 448" width="448pt" xmlns="http://www.w3.org/2000/svg"><path d="m376 320v-8h-16v8h-16c-8.835938 0-16 7.164062-16 16v8h16v-8h16c8.835938 0 16-7.164062 16-16zm0 0"/><path d="m312 328h-16v-8c0-8.835938 7.164062-16 16-16h16v-8h16v8c0 8.835938-7.164062 16-16 16h-16zm0 0"/><path d="m109.769531 416h4.757813l5.335937-16.808594-7.023437-63.191406h-1.679688l-7.015625 63.136719zm0 0"/><path d="m216 416v-75.359375c-.066406-18.023437-12.117188-33.804687-29.488281-38.609375l-32-8.710938 4.160156 6.238282c1.371094 2.074218 1.703125 4.667968.894531 7.019531s-2.664062 4.191406-5.023437 4.980469l-20.855469 6.953125-5.464844 10.929687 7.746094 69.648438c.121094 1.109375.011719 2.234375-.328125 3.300781l-4.328125 13.609375h44.6875v-72h16v72zm0 0"/><path d="m232 120h-16c-4.417969 0-8 3.582031-8 8v8h32v-8c0-4.417969-3.582031-8-8-8zm0 0"/><path d="m132.054688 302.214844 7.480468-2.496094-2.167968-3.246094-6.589844 3.191406zm0 0"/><path d="m112 256c22.082031-.027344 39.972656-17.917969 40-40v-8.222656c-12.910156-1.058594-23.898438-9.824219-27.800781-22.175782-13.621094 14.265626-32.472657 22.355469-52.199219 22.398438v8c.027344 22.082031 17.917969 39.972656 40 40zm0 0"/><path d="m128 280v-10.398438c-10.433594 3.144532-21.566406 3.144532-32 0v10.398438c-.015625 1.003906-.222656 2-.609375 2.929688l10.449219 5.070312h12.320312l10.449219-5.070312c-.386719-.929688-.59375-1.925782-.609375-2.929688zm0 0"/><path d="m116.800781 169.601562 4.800781-6.402343c1.507813-2.011719 3.878907-3.199219 6.398438-3.199219.539062-.003906 1.074219.050781 1.601562.160156 3.023438.609375 5.425782 2.90625 6.175782 5.894532l3.453125 13.824218c1.78125 7.117188 8.171875 12.113282 15.503906 12.121094h5.265625v-16c0-26.507812-21.492188-48-48-48s-48 21.492188-48 48v16h8c17.617188-.042969 34.195312-8.332031 44.800781-22.398438zm0 0"/><path d="m91.945312 302.214844 1.277344-2.550782-6.589844-3.191406-2.167968 3.246094zm0 0"/><path d="m90.328125 318.542969-20.855469-6.949219c-2.359375-.792969-4.214844-2.632812-5.023437-4.984375-.808594-2.351563-.476563-4.945313.894531-7.015625l4.160156-6.242188-32.039062 8.71875c-17.351563 4.808594-29.390625 20.566407-29.464844 38.570313v75.359375h24v-72h16v72h44.894531l-4.488281-13.472656c-.363281-1.09375-.488281-2.257813-.359375-3.40625l7.746094-69.648438zm0 0"/><path d="m16 32v256h13.121094c1.328125-.535156 2.691406-.992188 4.078125-1.359375l46.800781-12.71875v-12c-15.015625-10.472656-23.972656-27.617187-24-45.921875v-8c-4.417969 0-8-3.582031-8-8v-24c0-35.347656 28.652344-64 64-64s64 28.652344 64 64v24c0 4.417969-3.582031 8-8 8v8c-.027344 18.304688-8.984375 35.449219-24 45.921875v12l46.71875 12.71875c1.414062.367187 2.804688.824219 4.160156 1.359375h237.121094v-256zm48 48h-16v-16h16zm32 0h-16v-16h16zm32 0h-16v-16h16zm32 0h-16v-16h16zm96 104h-16v-32h-32v32h-16v-56c.039062-13.238281 10.761719-23.960938 24-24h16c13.238281.039062 23.960938 10.761719 24 24zm24 40h-16v-16h16zm32 0h-16v-16h16zm-32-40c-4.417969 0-8-3.582031-8-8v-64c0-4.417969 3.582031-8 8-8h32c13.238281.039062 23.960938 10.761719 24 24-.015625 5.925781-2.242188 11.628906-6.238281 16 3.996093 4.371094 6.222656 10.074219 6.238281 16-.039062 13.238281-10.761719 23.960938-24 24zm64 40h-16v-16h16zm32-56h16c4.417969 0 8-3.582031 8-8h16c-.039062 13.238281-10.761719 23.960938-24 24h-16c-13.238281-.039062-23.960938-10.761719-24-24v-32c.039062-13.238281 10.761719-23.960938 24-24h16c13.238281.039062 23.960938 10.761719 24 24h-16c0-4.417969-3.582031-8-8-8h-16c-4.417969 0-8 3.582031-8 8v32c0 4.417969 3.582031 8 8 8zm0 0"/><path d="m0 432h448v16h-448zm0 0"/><path d="m119.054688 312-4-8h-6.109376l-4 8 4 8h6.109376zm0 0"/><path d="m0 0h448v16h-448zm0 0"/><path d="m312 152h-24v16h24c4.417969 0 8-3.582031 8-8s-3.582031-8-8-8zm0 0"/><path d="m312 120h-24v16h24c4.417969 0 8-3.582031 8-8s-3.582031-8-8-8zm0 0"/><path d="m296 368v32c.027344 8.824219 7.175781 15.972656 16 16h16c5.683594-.03125 10.925781-3.078125 13.769531-8h10.230469c8.835938 0 16-7.164062 16-16v-8c0-8.835938-7.164062-16-16-16zm48 24v-8h8v8zm0 0"/></svg>